<svg width="28" height="18" viewBox="0 0 28 18" fill="none" xmlns="http://www.w3.org/2000/svg">
<path d="M18.5391 6.04685C19.957 6.04685 21.1055 4.91013 21.1055 3.49216C21.1055 2.07419 19.957 0.925754 18.5391 0.925754C17.1211 0.925754 15.9844 2.07419 15.9844 3.49216C15.9844 4.91013 17.1211 6.04685 18.5391 6.04685ZM13.8633 10.793C15.9375 10.793 16.5234 9.51559 18.3633 9.04685L10.2422 0.597629C9.71484 0.0585665 8.94141 -0.0117461 8.30859 0.433567L3.71484 3.70309C2.91797 4.26559 3 5.09763 3.45703 5.58981C3.83203 6.01169 4.52344 6.18747 5.17969 5.71872L8.90625 3.082L11.0156 5.24997C11.25 5.49606 11.3203 5.87106 10.957 6.11716L6.62109 8.96481C7.125 8.91794 7.66406 8.90622 8.28516 8.92966C10.9453 9.04685 11.4375 10.793 13.8633 10.793ZM0.65625 13.8867H1.83984C4.96875 13.8867 5.68359 11.9648 7.85156 11.9648C10.0195 11.9648 10.7344 13.8867 13.8633 13.8867C17.0039 13.8867 17.707 11.9648 19.8867 11.9648C22.0547 11.9648 22.7578 13.8867 25.8984 13.8867H27.082C27.4453 13.8867 27.7383 13.6055 27.7383 13.2422C27.7383 12.8789 27.4453 12.5859 27.082 12.5859H25.8984C23.6484 12.5859 22.8867 10.6641 19.8867 10.6641C16.875 10.6641 16.1133 12.5859 13.8633 12.5859C11.6133 12.5859 10.8633 10.6641 7.85156 10.6641C4.85156 10.6641 4.08984 12.5859 1.83984 12.5859H0.65625C0.28125 12.5859 0 12.8789 0 13.2422C0 13.6055 0.28125 13.8867 0.65625 13.8867ZM0.960938 17.1445C1.34766 17.1445 1.65234 16.8398 1.65234 16.4648C1.65234 16.0781 1.34766 15.7734 0.960938 15.7734C0.585938 15.7734 0.28125 16.0781 0.28125 16.4648C0.28125 16.8398 0.585938 17.1445 0.960938 17.1445ZM3.16406 16.7461C3.53906 16.7461 3.84375 16.4531 3.84375 16.0664C3.84375 15.6797 3.53906 15.3867 3.16406 15.3867C2.77734 15.3867 2.47266 15.6797 2.47266 16.0664C2.47266 16.4531 2.77734 16.7461 3.16406 16.7461ZM5.21484 15.7852C5.60156 15.7852 5.90625 15.4805 5.90625 15.0938C5.90625 14.7188 5.60156 14.4141 5.21484 14.4141C4.83984 14.4141 4.53516 14.7188 4.53516 15.0938C4.53516 15.4805 4.83984 15.7852 5.21484 15.7852ZM7.42969 15.2578C7.81641 15.2578 8.12109 14.9531 8.12109 14.5781C8.12109 14.1914 7.81641 13.8867 7.42969 13.8867C7.05469 13.8867 6.75 14.1914 6.75 14.5781C6.75 14.9531 7.05469 15.2578 7.42969 15.2578ZM9.64453 15.7852C10.0312 15.7852 10.3242 15.4805 10.3242 15.0938C10.3242 14.7188 10.0312 14.4141 9.64453 14.4141C9.25781 14.4141 8.96484 14.7188 8.96484 15.0938C8.96484 15.4805 9.25781 15.7852 9.64453 15.7852ZM11.7188 16.7461C12.1055 16.7461 12.4102 16.4531 12.4102 16.0664C12.4102 15.6797 12.1055 15.3867 11.7188 15.3867C11.3438 15.3867 11.0391 15.6797 11.0391 16.0664C11.0391 16.4531 11.3438 16.7461 11.7188 16.7461ZM13.8867 17.1445C14.2617 17.1445 14.5664 16.8398 14.5664 16.4648C14.5664 16.0781 14.2617 15.7734 13.8867 15.7734C13.5 15.7734 13.1953 16.0781 13.1953 16.4648C13.1953 16.8398 13.5 17.1445 13.8867 17.1445ZM16.043 16.7461C16.4297 16.7461 16.7227 16.4531 16.7227 16.0664C16.7227 15.6797 16.4297 15.3867 16.043 15.3867C15.6562 15.3867 15.3633 15.6797 15.3633 16.0664C15.3633 16.4531 15.6562 16.7461 16.043 16.7461ZM18.1172 15.7852C18.5039 15.7852 18.8086 15.4805 18.8086 15.0938C18.8086 14.7188 18.5039 14.4141 18.1172 14.4141C17.7422 14.4141 17.4375 14.7188 17.4375 15.0938C17.4375 15.4805 17.7422 15.7852 18.1172 15.7852ZM20.332 15.2578C20.7188 15.2578 21.0117 14.9531 21.0117 14.5781C21.0117 14.1914 20.7188 13.8867 20.332 13.8867C19.9453 13.8867 19.6523 14.1914 19.6523 14.5781C19.6523 14.9531 19.9453 15.2578 20.332 15.2578ZM22.5469 15.7852C22.9336 15.7852 23.2266 15.4805 23.2266 15.0938C23.2266 14.7188 22.9336 14.4141 22.5469 14.4141C22.1602 14.4141 21.8672 14.7188 21.8672 15.0938C21.8672 15.4805 22.1602 15.7852 22.5469 15.7852ZM24.6094 16.7461C24.9961 16.7461 25.2891 16.4531 25.2891 16.0664C25.2891 15.6797 24.9961 15.3867 24.6094 15.3867C24.2227 15.3867 23.9297 15.6797 23.9297 16.0664C23.9297 16.4531 24.2227 16.7461 24.6094 16.7461ZM26.7891 17.1445C27.1758 17.1445 27.4805 16.8398 27.4805 16.4648C27.4805 16.0781 27.1758 15.7734 26.7891 15.7734C26.4141 15.7734 26.1094 16.0781 26.1094 16.4648C26.1094 16.8398 26.4141 17.1445 26.7891 17.1445Z" fill="black"/>
</svg>
