<svg width="19" height="28" viewBox="0 0 19 28" fill="none" xmlns="http://www.w3.org/2000/svg">
<path d="M15.813 5.12109C17.2075 5.12109 18.356 3.97266 18.356 2.54297C18.356 1.13672 17.2075 0 15.813 0C14.3833 0 13.2349 1.13672 13.2349 2.54297C13.2349 3.97266 14.3833 5.12109 15.813 5.12109ZM9.93019 23.2148C10.6099 23.2148 11.1607 22.6641 11.1607 22.0078V15.8672C11.1607 15.5742 11.0552 15.3164 10.8794 15.1055L8.10206 11.6953C7.92628 11.4727 7.98487 11.2383 8.20753 11.1211L11.5825 9.36328C11.8286 9.23438 12.0864 9.32812 12.1216 9.62109L12.4146 11.6953C12.4849 12.1523 12.7427 12.4688 13.2232 12.7031L16.563 14.3789C17.4653 14.8359 18.1802 14.4609 18.4146 13.8867C18.6255 13.3477 18.4614 12.6445 17.7114 12.2695L14.7349 10.7461L14.2544 7.20703C13.9849 5.32031 11.9107 4.16016 9.91847 5.20312L5.51222 7.5C3.49659 8.55469 3.21534 10.8633 4.72706 12.375L8.74659 16.3828V22.0078C8.74659 22.6641 9.28566 23.2148 9.93019 23.2148ZM0.555186 15.6328C1.01222 16.4531 1.85597 16.6992 2.69972 16.5117L5.23097 15.9492C5.58253 15.8789 5.80519 15.6211 5.80519 15.2461C5.80519 14.8828 5.55909 14.625 5.20753 14.5664L0.883311 13.8164C0.156749 13.6875 -0.206532 14.2734 0.121593 14.8711L0.555186 15.6328ZM2.60597 15.75L5.77003 25.1484L7.04737 24.7031L3.93019 15.3516L2.60597 15.75ZM9.90675 27.4453C12.5083 27.4453 14.5474 25.3828 14.5474 22.8164C14.5474 21.0469 13.563 19.5234 12.0982 18.7383V20.4961C12.731 21.0703 13.0942 21.9023 13.0942 22.8164C13.0942 24.5742 11.6646 25.9922 9.90675 25.9922C8.18409 25.9922 6.73097 24.5391 6.73097 22.8164C6.73097 21.8906 7.15284 21.0352 7.79737 20.4492V18.7148C6.30909 19.4648 5.27784 21.0234 5.27784 22.8164C5.27784 25.3828 7.36378 27.4453 9.90675 27.4453ZM12.7427 24.832L14.0552 25.2773L17.0083 16.3008C17.1372 15.9492 16.938 15.5508 16.6099 15.4453C16.2114 15.3281 15.8716 15.5273 15.7544 15.8789L12.7427 24.832ZM3.46144 26.4492C2.98097 26.7656 3.12159 27.4805 3.68409 27.4805H16.1177C16.6802 27.4805 16.8208 26.7422 16.3638 26.4492L13.6099 24.6445L11.1138 26.3672H8.69972L6.20362 24.6445L3.46144 26.4492Z" fill="black"/>
</svg>
