<svg width="300" height="179" viewBox="0 0 300 179" fill="none" xmlns="http://www.w3.org/2000/svg">
<path d="M140.462 0.122349C145.018 -0.100244 149.5 -0.364453 153.253 2.73685C155.577 4.65696 157.504 7.2942 158.818 10.0016C162.267 17.1062 164.409 26.8829 166.665 34.5764L180.096 80.8506C181.797 86.7415 183.311 94.0068 185.781 99.4811C185.907 99.7621 186.049 100.035 186.206 100.3C186.363 100.565 186.535 100.821 186.721 101.066C186.907 101.312 187.106 101.546 187.318 101.769C187.531 101.992 187.755 102.202 187.992 102.4C189.046 103.273 190.215 103.685 191.566 103.834C195.029 104.216 198.671 104.011 202.158 104.008L220.82 103.991L240.868 104.013C244.836 104.017 248.94 104.218 252.885 103.812C252.15 102.041 245.475 99.2663 243.77 93.73C243.005 91.2447 243.21 88.2029 244.443 85.8976C244.521 85.7547 244.603 85.6137 244.688 85.4747C244.773 85.336 244.862 85.1994 244.954 85.0648C245.046 84.9303 245.142 84.7982 245.24 84.6685C245.339 84.5388 245.44 84.4116 245.545 84.2867C245.65 84.1622 245.758 84.0404 245.87 83.9214C245.981 83.802 246.095 83.6856 246.212 83.572C246.329 83.4585 246.448 83.348 246.571 83.2405C246.693 83.1331 246.818 83.0287 246.945 82.9275C247.073 82.8262 247.203 82.7281 247.335 82.6332C247.468 82.5387 247.602 82.4474 247.74 82.3594C247.877 82.2713 248.016 82.1868 248.157 82.1058C248.298 82.0245 248.441 81.9469 248.587 81.873C248.732 81.7992 248.879 81.729 249.027 81.6626C249.176 81.5961 249.326 81.5333 249.477 81.4743C249.629 81.4153 249.783 81.36 249.937 81.3083C250.091 81.257 250.247 81.2096 250.404 81.1661C253.601 80.2646 256.73 80.7586 259.588 82.3671C262.197 83.8353 264.693 85.6015 267.198 87.2453L280.198 95.8151L289.98 102.354C292.202 103.852 294.592 105.317 296.564 107.137C297.992 108.454 299.124 110.005 299.633 111.899C300.354 114.592 300.017 117.923 298.58 120.329C297.829 121.584 296.781 122.716 295.635 123.618C293.522 125.281 291.184 126.708 288.937 128.184L278.412 135.118C272.34 139.136 266.383 143.57 260.136 147.293C259.137 147.888 258.047 148.487 256.908 148.751C254.134 149.393 251.08 148.905 248.68 147.369C246.298 145.845 244.341 143.29 243.775 140.489C243.047 136.882 244.565 132.788 247.305 130.361C248.342 129.442 249.928 128.599 250.683 127.456C245.182 126.764 239.211 127.226 233.66 127.227L202.435 127.218C196.269 127.226 189.713 127.792 183.711 126.165C183.321 126.062 182.933 125.951 182.547 125.831C182.161 125.712 181.778 125.583 181.397 125.447C181.017 125.31 180.641 125.164 180.267 125.011C179.893 124.857 179.523 124.695 179.157 124.524C178.79 124.354 178.428 124.176 178.069 123.989C177.711 123.803 177.357 123.608 177.007 123.406C176.657 123.204 176.312 122.994 175.972 122.776C175.631 122.558 175.296 122.333 174.965 122.1C174.635 121.868 174.31 121.628 173.99 121.38C173.67 121.133 173.356 120.879 173.048 120.618C172.739 120.356 172.437 120.088 172.141 119.814C171.844 119.539 171.554 119.257 171.27 118.97C170.986 118.682 170.709 118.388 170.438 118.087C170.167 117.787 169.903 117.481 169.645 117.17C169.388 116.858 169.138 116.54 168.895 116.217C168.652 115.893 168.416 115.565 168.188 115.232C164.409 109.804 162.742 103.332 160.884 97.08L157.031 84.2238L148.008 54.7549C147.279 52.3572 144.904 43.3736 144.044 41.9316C143.886 41.666 143.873 41.6931 143.573 41.6171C142.55 43.3349 142.156 46.0685 141.663 48.0007C140.485 50.8857 139.749 54.1994 138.869 57.2078L133.571 75.4053L115 140.343L110.989 154.422C109.751 158.764 108.563 163.195 106.688 167.313C104.672 171.742 101.624 176.35 96.8594 178.082C93.4356 179.327 87.8123 179.373 84.518 177.804C81.7193 176.471 79.255 173.872 77.7018 171.209C75.3104 167.111 74.1065 162.196 72.7393 157.678L67.9614 142.002C67.0816 139.104 66.3188 136.106 65.2797 133.266C64.4574 131.019 63.4907 128.746 61.1877 127.678C58.7978 126.569 53.3208 127.08 50.6043 127.084L24.0759 127.088C19.884 127.087 15.4655 127.432 11.3025 127.041C9.57737 126.878 7.89373 126.526 6.32218 125.774C6.16083 125.698 6.00141 125.617 5.84391 125.533C5.68642 125.449 5.53101 125.361 5.37771 125.269C5.22472 125.177 5.074 125.081 4.92553 124.982C4.77705 124.883 4.63115 124.78 4.48783 124.673C4.34418 124.567 4.20344 124.457 4.06559 124.343C3.92743 124.23 3.79215 124.113 3.65978 123.993C3.52773 123.873 3.39858 123.75 3.27233 123.623C3.14607 123.497 3.02288 123.367 2.90275 123.235C2.78294 123.102 2.66635 122.967 2.55298 122.829C2.43961 122.691 2.32979 122.55 2.2235 122.406C2.11722 122.262 2.01448 122.116 1.91528 121.968C1.81608 121.819 1.72059 121.668 1.6288 121.514C1.53669 121.361 1.4486 121.206 1.36454 121.048C1.28048 120.89 1.20028 120.731 1.12395 120.569C1.0473 120.407 0.97483 120.244 0.906551 120.079C0.838272 119.914 0.774021 119.747 0.713794 119.578C0.645192 119.384 0.581581 119.188 0.522964 118.99C0.464025 118.793 0.410078 118.594 0.361124 118.394C0.312169 118.194 0.268044 117.993 0.228751 117.79C0.18978 117.588 0.155642 117.385 0.126333 117.181C0.0973469 116.976 0.0731908 116.772 0.0538665 116.567C0.0348642 116.361 0.0208551 116.156 0.0118371 115.95C0.00281909 115.744 -0.00104678 115.538 0.000241511 115.332C0.0015298 115.126 0.0078109 114.92 0.0190834 114.714C0.0303559 114.508 0.0466195 114.303 0.0678763 114.098C0.0894551 113.893 0.115866 113.688 0.147107 113.485C0.17867 113.281 0.215063 113.078 0.256288 112.876C0.297835 112.674 0.344214 112.474 0.395424 112.274C0.446955 112.074 0.503156 111.876 0.564028 111.679C0.625221 111.482 0.691087 111.287 0.761621 111.094C0.832155 110.9 0.907517 110.708 0.987713 110.518C1.06791 110.329 1.15261 110.141 1.24183 109.955C2.46747 107.414 4.44096 105.675 7.1111 104.777C8.47249 104.32 9.86336 104.101 11.2929 104.023C15.1374 103.812 19.0458 103.944 22.8962 103.942L43.7258 103.938L60.3756 103.921C63.5926 103.918 66.9019 103.77 70.1073 104.043C72.3881 104.237 74.5631 104.699 76.6216 105.746C78.7245 106.814 80.2541 108.358 81.4705 110.372C83.8706 114.347 85.0006 119.44 86.3943 123.853L91.1839 138.716C94.0917 129.262 96.6681 119.694 99.3532 110.174L114.28 56.8071L120.509 34.6378C122.765 26.5683 125.28 14.4056 129.792 7.7089C132.355 3.90449 135.88 0.998688 140.462 0.122349Z" fill="#FF8447"/>
</svg>
